<?xml version="1.0" encoding="utf-8"?>
<!-- Generator: Adobe Illustrator 18.1.1, SVG Export Plug-In . SVG Version: 6.00 Build 0)  -->
<svg version="1.1" id="Layer_1" xmlns="http://www.w3.org/2000/svg" xmlns:xlink="http://www.w3.org/1999/xlink" x="0px" y="0px"
	 viewBox="0 0 160 42" enable-background="new 0 0 160 42" xml:space="preserve">
<g>
	<path d="M41.7,20.9c0,11.5-9.3,20.9-20.9,20.9C9.3,41.7,0,32.4,0,20.9C0,9.3,9.3,0,20.9,0C32.4,0,41.7,9.3,41.7,20.9z M34.4,23.5
		L34.4,23.5l-9-15.7l0,0c-0.9-1.6-2.6-2.6-4.5-2.6c-1.9,0-3.6,1.1-4.5,2.6h0l-9,15.7l0,0c-0.4,0.8-0.7,1.7-0.7,2.6
		c0,2.9,2.3,5.2,5.2,5.2h18.1c2.9,0,5.2-2.3,5.2-5.2C35.1,25.1,34.9,24.2,34.4,23.5z M20.9,15.6c-2.9,0-5.2,2.3-5.2,5.2
		c0,2.9,2.3,5.2,5.2,5.2c2.9,0,5.2-2.3,5.2-5.2C26.1,18,23.8,15.6,20.9,15.6z"/>
	<g>
		<path d="M56.2,14.2h-4.1v-3.7h4.1V14.2z M52.2,16h4.1v15.3h-4.1V16z"/>
		<path d="M62.5,31.3h-4V10.6h4V31.3z"/>
		<path d="M68.7,31.3h-4V10.6h4V31.3z"/>
		<path d="M74.9,16v9.2c0,0.9,0.1,1.5,0.3,2c0.4,0.8,1.1,1.2,2.1,1.2c1.4,0,2.3-0.6,2.8-1.7c0.3-0.6,0.4-1.4,0.4-2.4V16h4.2v15.3h-4
			v-2.2c0,0-0.1,0.2-0.3,0.4c-0.1,0.2-0.3,0.4-0.5,0.6c-0.6,0.6-1.2,0.9-1.8,1.2c-0.6,0.2-1.3,0.3-2,0.3c-2.3,0-3.8-0.8-4.6-2.4
			c-0.4-0.9-0.7-2.2-0.7-4V16H74.9z"/>
		<path d="M105.8,16c0.7,0.3,1.2,0.7,1.8,1.4c0.4,0.5,0.7,1.2,0.9,2c0.1,0.5,0.1,1.3,0.1,2.3l0,9.6h-4.1v-9.7c0-0.6-0.1-1.1-0.3-1.4
			c-0.4-0.7-1-1.1-2-1.1c-1.1,0-1.9,0.5-2.3,1.4c-0.2,0.5-0.3,1.1-0.3,1.8v9.1h-4v-9.1c0-0.9-0.1-1.6-0.3-2c-0.3-0.7-1-1.1-2-1.1
			c-1.1,0-1.9,0.4-2.3,1.1c-0.2,0.4-0.3,1-0.3,1.9v9.2h-4.1V16h3.9v2.2c0.5-0.8,1-1.4,1.4-1.7c0.8-0.6,1.8-0.9,3-0.9
			c1.2,0,2.1,0.3,2.8,0.8c0.6,0.5,1,1.1,1.3,1.8c0.5-0.9,1.2-1.6,2-2c0.8-0.4,1.7-0.6,2.7-0.6C104.5,15.7,105.1,15.8,105.8,16z"/>
		<path d="M114.5,14.2h-4.1v-3.7h4.1V14.2z M110.5,16h4.1v15.3h-4.1V16z"/>
		<path d="M128.9,16.9c1,0.8,1.5,2.2,1.5,4.1v10.3h-4.1V22c0-0.8-0.1-1.4-0.3-1.9c-0.4-0.8-1.1-1.2-2.2-1.2c-1.3,0-2.3,0.6-2.8,1.7
			c-0.3,0.6-0.4,1.4-0.4,2.3v8.3h-4V16h3.9v2.2c0.5-0.8,1-1.4,1.5-1.7c0.8-0.6,1.9-0.9,3.1-0.9C126.6,15.6,127.8,16,128.9,16.9z"/>
		<path d="M138.7,22c0.7-0.1,1.3-0.2,1.6-0.4c0.6-0.2,0.9-0.6,0.9-1.1c0-0.6-0.2-1.1-0.7-1.3c-0.4-0.2-1.1-0.4-1.9-0.4
			c-1,0-1.6,0.2-2,0.7c-0.3,0.3-0.5,0.8-0.6,1.4h-3.9c0.1-1.3,0.5-2.4,1.1-3.3c1.1-1.3,2.9-2,5.5-2c1.7,0,3.2,0.3,4.5,1
			c1.3,0.7,2,1.9,2,3.8v7c0,0.5,0,1.1,0,1.8c0,0.5,0.1,0.9,0.2,1.1c0.1,0.2,0.3,0.3,0.6,0.5v0.6h-4.3c-0.1-0.3-0.2-0.6-0.3-0.9
			c0-0.3-0.1-0.6-0.1-0.9c-0.6,0.6-1.2,1.1-1.9,1.5c-0.9,0.5-1.8,0.7-2.9,0.7c-1.4,0-2.5-0.4-3.5-1.2c-0.9-0.8-1.4-1.9-1.4-3.4
			c0-1.9,0.7-3.2,2.2-4.1c0.8-0.5,2-0.8,3.5-1L138.7,22z M141.1,23.8c-0.3,0.2-0.5,0.3-0.8,0.4c-0.3,0.1-0.6,0.2-1.1,0.3l-0.9,0.2
			c-0.9,0.1-1.5,0.3-1.8,0.5c-0.6,0.4-0.9,0.9-0.9,1.7c0,0.7,0.2,1.2,0.6,1.5c0.4,0.3,0.9,0.5,1.4,0.5c0.9,0,1.7-0.3,2.4-0.8
			c0.7-0.5,1.1-1.4,1.1-2.8V23.8z"/>
		<path d="M145.9,19v-2.8h2.1v-4.3h4v4.3h2.5V19H152v8.1c0,0.6,0.1,1,0.2,1.2c0.2,0.2,0.6,0.2,1.5,0.2c0.1,0,0.3,0,0.4,0
			c0.1,0,0.3,0,0.4,0v3l-1.9,0.1c-1.9,0.1-3.2-0.3-3.9-1c-0.4-0.5-0.7-1.2-0.7-2.1V19H145.9z"/>
		<path d="M160,14.2h-4.1v-3.7h4.1V14.2z M155.9,16h4.1v15.3h-4.1V16z"/>
	</g>
</g>
</svg>
